# xmcd
#
# Track frame offsets:
#	150
#	15846
#	27676
#	49924
#	64679
#	79882
#	97059
#	111578
#	126889
#	145274
#	160506
#	172697
#	182716
#	197796
#	213485
#
# Disc length: 3002 seconds
#
# Revision: 0
# Processed by: cddbd v1.5.2PL0 Copyright (c) Steve Scherf et al.
# Submitted via: audiograbber 1.83.01
#
DISCID=d00bb80f
DTITLE=Richard Anthony - Sentimrntal
DYEAR=1996
DGENRE=Variété Française
TTITLE0=500 Millas
TTITLE1=Mi mundo
TTITLE2=En Aranjuez Con Tu Amor
TTITLE3=Poema De Amor
TTITLE4=Nada Nos Separara
TTITLE5=Abrazame
TTITLE6=A Veces Me Pregunto
TTITLE7=J'irai Pleurer Sous Le Pluie
TTITLE8=Elle M'attend Ce Soir
TTITLE9=Il Est Temps De Comprendre
TTITLE10=If I Loved You
TTITLE11=Et S'en Vient Le Temps
TTITLE12=Paris La Nuit
TTITLE13=J'entends Siffler Le Train
TTITLE14=Ce Monde
EXTD=j'ai inscrit le nom des pistes\n
EXTT0=
EXTT1=
EXTT2=
EXTT3=
EXTT4=
EXTT5=
EXTT6=
EXTT7=
EXTT8=
EXTT9=
EXTT10=
EXTT11=
EXTT12=
EXTT13=
EXTT14=
PLAYORDER=
